<svg xmlns="http://www.w3.org/2000/svg" version="1.1" xmlns:xlink="http://www.w3.org/1999/xlink" width="1500" height="1500" viewBox="0 0 1500 1500"><rect width="1500" height="1500" x="0" y="0" id="background" stroke="transparent" fill="#ffffff"></rect><svg xml:space="preserve" width="1000" height="1000" data-version="2" data-id="lg_9uZIx4sCwmGUfniW0g" viewBox="0 0 569 107" x="250" y="250"><rect width="100%" height="100%" fill="transparent"></rect><rect width="125.29" height="125.29" x="-62.64" y="-62.64" fill="#d9d9d9" rx="29" ry="29" transform="translate(58.22 53.5)scale(.8386)"></rect><path d="M155.85 81.06q11.31 0 17.18-4.29 5.87-4.28 5.87-14.37V22.03h-8.91v39.23q0 7.4-3.53 10.51-3.52 3.11-10.61 3.11-7.14 0-10.66-3.11-3.52-3.11-3.52-10.51V22.03h-8.92V62.4q0 10.09 5.87 14.37 5.87 4.29 17.23 4.29" paint-order="stroke"></path><rect width="46.15" height="59.03" x="-23.07" y="-29.52" fill="none" rx="0" ry="0" transform="translate(156.32 52.05)"></rect><path d="M188.91 80.71h8.79V39.12l-1.88-9.96h-6.91Zm32.32 0h8.79V51.22q0-10.53-3.72-16.56-3.72-6.02-12.68-6.02-9.01 0-14.73 5.61-5.72 5.61-5.72 11.96l4.26 2.7q0-6.09 3.79-10.09 3.78-4 9.22-4 5.44 0 8.11 3.74 2.68 3.74 2.68 12.7Z" paint-order="stroke"></path><rect width="41.11" height="52.07" x="-20.55" y="-26.04" fill="none" rx="0" ry="0" transform="translate(209.97 55.17)"></rect><path d="M240.8 80.71h8.83V29.12h-8.83Zm0-65.69v7.79h8.83v-7.79Z" paint-order="stroke"></path><rect width="8.83" height="65.69" x="-4.42" y="-32.84" fill="none" rx="0" ry="0" transform="translate(245.72 48.37)"></rect><path d="M274.65 80.71h12.09l16.36-51.59h-9.23l-13.09 45.46h-.09l-13.05-45.46h-9.26Z" paint-order="stroke"></path><rect width="44.72" height="51.59" x="-22.36" y="-25.8" fill="none" rx="0" ry="0" transform="translate(281.24 55.41)"></rect><path d="M330.24 81.14v-5.82q-6.61 0-10.31-4.83-3.74-4.74-3.74-15.66 0-11.53 3.87-15.97 3.83-4.39 10.05-4.39 6.39 0 9.96 4.17 3.09 3.92 3.44 13.4h-28.28v5.48h36.98q.17-1.3.17-2.82 0-12.92-5.13-19.49-5.18-6.57-17.14-6.57-11.62 0-17.01 6.57-5.44 6.52-5.44 19.62 0 12.35 5.31 19.35 5.26 6.96 17.27 6.96m0-5.82v5.82q6.52 0 10.79-1.69 4.26-1.7 6.96-5.44 2.65-3.7 3.39-9l-7.92-2.14q-.74 3.83-2.21 6.88-1.57 3.04-4.4 4.3-2.83 1.27-6.61 1.27" paint-order="stroke"></path><rect width="44.72" height="52.5" x="-22.36" y="-26.25" fill="none" rx="0" ry="0" transform="translate(330.52 55.39)"></rect><path d="M392.01 53.17h8.79q0-12.74-3.42-18.59-3.41-5.85-12.2-5.85-8.53 0-13.57 4.65-5.05 4.66-5.05 11.27l3.4 2.48q0-4.74 3.21-8.51 3.22-3.76 8.83-3.76 4.92 0 7.47 3.85 2.54 3.85 2.54 14.46m-30.8 27.54H370V39.12l-1.87-9.96h-6.92Z" paint-order="stroke"></path><rect width="39.59" height="51.98" x="-19.8" y="-25.99" fill="none" rx="0" ry="0" transform="translate(381.5 55.22)"></rect><path d="M429.38 81.14q10.83 0 15.46-5.8 4.63-5.81 5.07-11.86l-7.88-2.69q-.17 5.69-3.45 9.94-3.29 4.24-9.2 4.24-6.01 0-9.77-4.7t-3.76-15.31q0-11.31 3.72-15.71 3.72-4.39 9.81-4.39 5.96 0 9.22 3.94 3.26 3.93 3.43 10.42l7.88-2.61q-.44-6.79-5.05-12.36-4.61-5.57-15.48-5.57-11.88 0-17.19 6.51-5.3 6.5-5.3 19.77 0 12.66 5.3 19.42 5.31 6.76 17.19 6.76" paint-order="stroke"></path><rect width="43.02" height="52.46" x="-21.51" y="-26.23" fill="none" rx="0" ry="0" transform="translate(428.9 55.41)"></rect><path d="M460.17 80.71H469V29.12h-8.83Zm0-65.69v7.79H469v-7.79Z" paint-order="stroke"></path><rect width="8.83" height="65.69" x="-4.42" y="-32.84" fill="none" rx="0" ry="0" transform="translate(465.08 48.37)"></rect><path d="M501.5 81.27q4.78 0 9.13-1.08v-5.96q-3 1-6.17 1-3.57 0-5.53-1.52-1.95-1.53-1.95-6.27v-32.1h17.05v-6.18h-17.05V17.5h-8.84v11.66H476.1v6.18h12.04v34.15q0 6.78 3.83 9.28 3.83 2.5 9.53 2.5" paint-order="stroke"></path><rect width="37.93" height="63.77" x="-18.96" y="-31.89" fill="none" rx="0" ry="0" transform="translate(495.56 49.88)"></rect><path d="M533.95 80.71h13.44l14.92-51.55h-9.22l-12.4 45.5h-.08l-12.53-45.5h-9.18Zm-12.96 20.05q10 0 16.44-3.98 6.44-3.98 9.96-16.07h-8.18q-2.48 8.48-6.65 11.24-4.18 2.77-11.57 2.77Z" paint-order="stroke"></path><rect width="43.41" height="71.6" x="-21.7" y="-35.8" fill="none" rx="0" ry="0" transform="translate(541.1 65.46)"></rect><path d="m50.131 76.912-3.215-22.653L43.701 76.9l-3.215-22.642-3.215 22.63-3.216-22.642L30.84 76.89l-3.226-22.642-3.215 22.654-3.216-22.642-3.215 22.63-4.89-34.472 3.362-.476 1.528 10.812L21.183 30.1 24.4 52.741l3.215-22.63 3.226 22.642 3.215-22.642 3.216 22.642 3.215-22.654L43.7 52.741 46.916 30.1l3.215 22.642L53.346 30.1l3.216 22.642L59.777 30.1l3.215 22.654 3.215-22.642 3.227 22.642 3.215-22.642 3.215 22.642 3.226-22.63 3.216 22.63L85.52 30.11l3.226 22.653 3.215-22.642 3.227 22.653 3.226-22.63 4.914 34.438-3.363.476-1.55-10.846-3.227 22.654-3.227-22.631-3.215 22.642-3.215-22.63-3.226 22.641-3.216-22.653-3.226 22.653-3.215-22.642-3.215 22.642-3.227-22.642-3.215 22.642-3.215-22.63L56.562 76.9l-3.216-22.642z"></path></svg></svg>